<svg width="36" height="29" viewBox="0 0 36 29" fill="none" xmlns="http://www.w3.org/2000/svg">
<g id="Icon%203.svg" clip-path="url(#clip0_1108_819)">
<path id="Vector" fill-rule="evenodd" clip-rule="evenodd" d="M6.8458 0.779868C6.46187 0.839822 6.0092 0.958142 5.77769 1.05905C5.50891 1.17625 5.14984 1.39554 5.12104 1.4602C5.11243 1.47947 5.08049 1.49519 5.05005 1.49519C4.96544 1.49519 4.45498 1.99814 4.2275 2.30564C3.97093 2.65248 3.72931 3.1717 3.61224 3.62786C3.52543 3.96615 3.52112 4.17303 3.52112 8.02524V12.0676L3.38701 12.2518C3.16472 12.557 2.95297 12.971 2.98809 13.0319C3.00621 13.0634 3.00392 13.0736 2.98303 13.0548C2.94056 13.0164 2.87299 13.1335 2.6804 13.579C2.60833 13.7457 2.44368 14.1027 2.31458 14.372C2.18544 14.6415 1.93216 15.1769 1.75173 15.5618C1.57126 15.9467 1.30327 16.5135 1.15619 16.8215C0.610192 17.9645 0.571045 18.1862 0.571045 20.1338C0.571045 20.9352 0.592538 21.7039 0.618855 21.8421C0.745053 22.5052 1.2261 23.1016 1.82291 23.3349C2.04449 23.4215 2.21892 23.4452 2.79531 23.4668L3.4977 23.4932V25.8843V28.2754H5.11898H6.74021L6.94264 28.0538C7.05395 27.9319 7.5343 27.428 8.01002 26.9341L8.87502 26.0359H18.1796H27.4841L28.5555 27.155L29.6269 28.2741L31.2424 28.263L32.858 28.2521L32.8651 25.8727L32.8722 23.4932L33.5675 23.4668C34.1322 23.4454 34.3125 23.421 34.5278 23.3367C35.1552 23.0913 35.6107 22.5199 35.7416 21.8144C35.7749 21.6352 35.7861 20.9749 35.7736 19.9266C35.7548 18.3387 35.7526 18.3083 35.6294 17.9065C35.4883 17.4465 34.6037 15.6491 34.5268 15.6662C34.4994 15.6723 34.4886 15.6468 34.503 15.6096C34.535 15.5262 33.0716 12.597 32.8761 12.3533C32.7984 12.2564 32.7573 12.183 32.7845 12.1899C32.8193 12.1988 32.8341 10.967 32.8339 8.0908C32.8336 4.13038 32.8301 3.9655 32.7397 3.6119C32.3618 2.13325 31.1183 1.00876 29.6269 0.797085C29.3164 0.753042 7.12512 0.736248 6.8458 0.779868ZM21.368 0.923662C21.4262 0.997658 21.4246 0.999291 21.3503 0.941299C21.3053 0.906072 21.2684 0.86931 21.2684 0.859649C21.2684 0.821254 21.3068 0.845935 21.368 0.923662ZM14.9936 0.997193C14.9936 1.00554 14.9357 1.06325 14.8649 1.12549L14.736 1.23859L14.8496 1.11029C14.9557 0.990378 14.9936 0.960569 14.9936 0.997193ZM21.5728 1.12195C21.6193 1.17327 21.647 1.21526 21.6341 1.21526C21.6212 1.21526 21.5725 1.17327 21.526 1.12195C21.4793 1.07062 21.4517 1.02863 21.4646 1.02863C21.4775 1.02863 21.5262 1.07062 21.5728 1.12195ZM30.0071 1.65097C30.2162 1.72385 30.4785 1.84366 30.5901 1.91723C30.7431 2.01815 30.8081 2.0384 30.8549 1.99977C30.902 1.96076 30.9107 1.9645 30.8911 2.0154C30.8759 2.05482 30.9193 2.122 30.9965 2.17893C31.1916 2.32272 31.6349 2.88315 31.7783 3.1676C31.8475 3.30477 31.9449 3.57583 31.9947 3.76992C32.0805 4.10421 32.0853 4.3171 32.0853 7.81026V11.4977L32.2141 11.6379C32.2849 11.715 32.227 11.6762 32.0853 11.5516C31.7157 11.2266 31.164 10.9893 30.1771 10.7306L29.7908 10.6294L29.7906 8.70995C29.7904 7.46013 29.7723 6.72549 29.7389 6.60396C29.6533 6.29403 29.3098 5.82519 29.0409 5.65163C28.5872 5.35868 28.7453 5.36861 24.5021 5.36708C20.246 5.36549 20.4672 5.3515 19.9951 5.65326C19.7335 5.82052 19.4716 6.15705 19.3357 6.50043C19.251 6.71453 19.2368 6.87489 19.2182 7.82865L19.1971 8.91341H18.1767H17.1564L17.1379 7.82865C17.1214 6.86331 17.1086 6.71714 17.0215 6.50043C16.8103 5.97518 16.3976 5.58239 15.8999 5.43319C15.7191 5.37897 15.0058 5.36717 11.8368 5.36596C7.58693 5.36433 7.77633 5.35168 7.29628 5.66917C7.01115 5.85775 6.92939 5.95447 6.72303 6.34736L6.58826 6.60396L6.57468 8.59097L6.5611 10.578L5.82546 10.7783L5.08981 10.9787L4.05962 11.9867L3.02944 12.9948L3.98939 12.024C4.78197 11.2225 4.91669 11.0677 4.76202 11.1366C4.659 11.1823 4.51881 11.2572 4.45044 11.3029C4.38207 11.3487 4.31356 11.3861 4.29825 11.3861C4.28289 11.3861 4.27034 9.75189 4.27034 7.75448C4.27034 4.31649 4.27517 4.10402 4.36095 3.76992C4.41078 3.57583 4.50851 3.30477 4.57818 3.1676C4.81447 2.70231 5.29721 2.15345 5.53691 2.07769C5.63253 2.04745 5.62312 2.02879 5.38781 1.78198L5.13664 1.51857L5.38079 1.74839L5.6249 1.97822L5.94271 1.82327C6.59158 1.50676 6.34031 1.52435 10.6153 1.49687C12.753 1.48311 17.905 1.48236 22.0644 1.49519L29.6269 1.51852L30.0071 1.65097ZM31.1488 1.74456C31.1488 1.75343 31.1013 1.80065 31.0434 1.84954L30.938 1.93842L31.0273 1.83345C31.1111 1.73482 31.1488 1.70724 31.1488 1.74456ZM15.8361 6.22237C15.9564 6.28348 16.1066 6.41445 16.1873 6.52875L16.3282 6.72839L16.3423 7.83728L16.3562 8.94607L15.8037 8.97858C14.7653 9.03963 13.1858 9.22615 11.7626 9.45578C10.6419 9.63657 7.7247 10.2594 7.37864 10.3916C7.32447 10.4124 7.31407 10.1317 7.31407 8.64684V6.87732L7.44284 6.62397C7.62537 6.26491 7.85369 6.1451 8.41452 6.11407C8.6463 6.10125 10.3637 6.09635 12.2308 6.10316L15.6258 6.11557L15.8361 6.22237ZM28.437 6.18593C28.5551 6.22474 28.7071 6.31399 28.7747 6.38426C29.0285 6.64819 29.0416 6.76161 29.0416 8.68912C29.0416 10.3533 29.0367 10.4578 28.9596 10.4348C28.402 10.268 27.0534 9.96519 25.409 9.63757C24.1199 9.38069 22.1538 9.11312 20.7416 9.00239L20.0041 8.94454V7.88658C20.0041 6.86905 20.0082 6.82072 20.1131 6.62295C20.1729 6.50986 20.3118 6.35435 20.4214 6.27737L20.6207 6.1374L22.7123 6.11407C26.1074 6.07619 28.1824 6.10222 28.437 6.18593ZM13.4718 9.70656C13.5183 9.75784 13.546 9.79989 13.5331 9.79989C13.5202 9.79989 13.4715 9.75784 13.425 9.70656C13.3783 9.6552 13.3507 9.61322 13.3636 9.61322C13.3765 9.61322 13.4252 9.6552 13.4718 9.70656ZM20.683 9.7509C21.2031 9.7947 21.847 9.8614 22.7668 9.96664C24.4265 10.1566 27.9094 10.889 30.2825 11.5471C31.2946 11.8278 31.8302 12.168 32.2595 12.8032C32.3831 12.9861 32.8206 13.8121 33.2317 14.6388L33.9792 16.1418L34.0975 16.0384L34.216 15.9351L34.1076 16.0579L33.9992 16.1807L34.4247 17.0276C34.6588 17.4934 34.8863 18.0154 34.9305 18.1878C34.9988 18.4542 35.0109 18.7458 35.0114 20.134C35.012 21.7623 35.0116 21.7677 34.8986 22.0171C34.7674 22.3066 34.4321 22.5999 34.1439 22.6772C34.0432 22.7043 33.7166 22.7205 33.4183 22.7132L32.8759 22.7001L32.8799 21.2888L32.8839 19.8774H18.1791H3.4743V21.3049V22.7324L2.83042 22.7162C2.22801 22.7011 2.17251 22.6918 1.96858 22.5724C1.74653 22.4424 1.5337 22.2053 1.41284 21.9536C1.35998 21.8434 1.34228 21.496 1.32973 20.3206C1.30875 18.3593 1.32832 18.2319 1.80361 17.2326C1.99677 16.8265 2.19124 16.4035 2.23577 16.2925L2.31679 16.091L2.04093 15.803L1.76512 15.5152L2.05657 15.7924L2.34807 16.0698L2.54104 15.6525C2.64719 15.4229 2.82907 15.0358 2.94525 14.792C3.06142 14.5482 3.27898 14.0863 3.42873 13.7656C3.83476 12.8958 3.92818 12.7467 4.29511 12.3836C4.83334 11.8509 5.21264 11.701 7.40772 11.1535C10.8726 10.2892 13.3137 9.89544 16.4921 9.68801C17.0049 9.65451 20.089 9.70083 20.683 9.7509ZM32.5128 11.9344C32.571 12.0083 32.5693 12.01 32.4951 11.952C32.417 11.891 32.3923 11.8527 32.4308 11.8527C32.4405 11.8527 32.4774 11.8895 32.5128 11.9344ZM34.4267 15.7412C34.4267 15.7501 34.3792 15.7972 34.3213 15.8462L34.216 15.9351L34.3051 15.8301C34.389 15.7315 34.4267 15.7038 34.4267 15.7412ZM32.0853 24.0767V27.5289L31.6756 27.5313C31.4502 27.5325 30.9708 27.532 30.6103 27.53L29.9547 27.5265L29.7446 27.3061C29.629 27.1849 29.1463 26.6815 28.672 26.1876L27.8096 25.2895H18.1771H8.54466L7.70187 26.1642C7.23835 26.6454 6.75875 27.1492 6.63611 27.284L6.41308 27.5289H5.84732H5.28156L5.11556 27.6805L4.94951 27.8322L5.08695 27.6805L5.22439 27.5289H4.74736H4.27034V24.0763V20.6238L18.1778 20.6241L32.0853 20.6244V24.0767ZM31.6639 27.9255C31.8298 28.0923 31.955 28.2288 31.9421 28.2288C31.9293 28.2288 31.783 28.0923 31.6171 27.9255C31.4512 27.7587 31.3259 27.6222 31.3388 27.6222C31.3517 27.6222 31.498 27.7587 31.6639 27.9255ZM4.92592 27.8697C4.92592 27.8775 4.84692 27.9562 4.75032 28.0446L4.57472 28.2054L4.73608 28.0304C4.8863 27.8677 4.92592 27.8341 4.92592 27.8697Z" fill="#0A0A0A"/>
</g>
<defs>
<clipPath id="clip0_1108_819">
<rect width="36" height="29" fill="white" transform="translate(0 0.000488281)"/>
</clipPath>
</defs>
</svg>
