<svg width="16" height="16" viewBox="0 0 16 16" fill="none" xmlns="http://www.w3.org/2000/svg">
<g id="Img - star &#226;&#134;&#146; SVG" clip-path="url(#clip0_1108_845)">
<path id="Vector" d="M12.3125 15.0005C12.2073 15.0009 12.1046 14.9681 12.0191 14.9067L8.00003 11.993L3.98097 14.9067C3.8951 14.969 3.79166 15.0024 3.68559 15.002C3.57951 15.0016 3.47631 14.9675 3.3909 14.9046C3.30549 14.8417 3.2423 14.7532 3.21046 14.6521C3.17862 14.5509 3.17978 14.4422 3.21378 14.3417L4.78128 9.69891L0.718779 6.91298C0.630782 6.8527 0.564368 6.76586 0.529239 6.66515C0.49411 6.56444 0.492107 6.45513 0.523524 6.3532C0.554941 6.25127 0.618131 6.16206 0.70386 6.0986C0.78959 6.03514 0.893367 6.00076 1.00003 6.00048H6.0119L7.52441 1.34579C7.55699 1.2453 7.62056 1.15771 7.70601 1.09558C7.79146 1.03346 7.89439 1 8.00003 1C8.10567 1 8.2086 1.03346 8.29405 1.09558C8.3795 1.15771 8.44307 1.2453 8.47566 1.34579L9.98815 6.00204H15C15.1068 6.00199 15.2108 6.03613 15.2968 6.09947C15.3828 6.16281 15.4462 6.25201 15.4779 6.35402C15.5095 6.45603 15.5076 6.56548 15.4725 6.66634C15.4374 6.76721 15.3709 6.85419 15.2828 6.91454L11.2188 9.69891L12.7853 14.3405C12.8107 14.4156 12.8179 14.4957 12.8062 14.5742C12.7945 14.6526 12.7643 14.7272 12.7181 14.7917C12.6719 14.8561 12.611 14.9087 12.5405 14.945C12.47 14.9813 12.3918 15.0003 12.3125 15.0005Z" fill="#0A0A0A" stroke="#0A0A0A" stroke-width="0.0351562"/>
</g>
<defs>
<clipPath id="clip0_1108_845">
<rect width="16" height="16" fill="white"/>
</clipPath>
</defs>
</svg>
