<svg width="41" height="41" viewBox="0 0 41 41" fill="none" xmlns="http://www.w3.org/2000/svg">
<g id="Icon%205.svg" clip-path="url(#clip0_1108_858)">
<path id="Vector" fill-rule="evenodd" clip-rule="evenodd" d="M19.5091 0.861957C18.9559 1.07827 18.6783 1.27656 17.5525 2.26012C17.0546 2.69501 16.4897 3.13321 16.2973 3.23387C15.8215 3.48254 15.2032 3.46783 13.6195 3.17038C12.0778 2.88076 11.4579 2.90228 10.7027 3.27179C9.88118 3.67367 9.46531 4.31865 8.85333 6.13907C8.22938 7.99534 8.04439 8.19476 6.44047 8.74022C4.96118 9.24332 4.50883 9.44556 3.99111 9.83553C2.98387 10.5943 2.76879 11.6644 3.205 13.7466C3.32452 14.3174 3.42632 15.0633 3.43122 15.4044C3.44169 16.1391 3.35971 16.2843 2.14324 17.6842C1.70419 18.1895 1.20081 18.8687 1.02459 19.1936C0.73639 19.7252 0.704315 19.8597 0.704315 20.5389C0.704315 21.2143 0.736862 21.3532 1.01421 21.8596C1.18468 22.1709 1.72995 22.8926 2.22607 23.4634C3.59782 25.0418 3.60989 25.0835 3.24877 27.011C2.82728 29.261 2.90567 30.0447 3.6331 30.8537C4.13431 31.4113 4.65203 31.6943 6.05105 32.1758C8.13996 32.8947 8.15929 32.9141 8.87936 35.0064C9.35973 36.4019 9.64301 36.9198 10.2002 37.4209C11.0093 38.1484 11.7931 38.2267 14.043 37.8053C15.9705 37.4441 16.0123 37.4562 17.5907 38.8279C18.1613 39.324 18.883 39.8693 19.1943 40.0398C19.7009 40.3172 19.8397 40.3497 20.5151 40.3497C21.1943 40.3497 21.3288 40.3176 21.8604 40.0294C22.1853 39.8532 22.8645 39.3498 23.3698 38.9108C24.7698 37.6943 24.9149 37.6123 25.6496 37.6228C25.9906 37.6277 26.7366 37.7296 27.3073 37.8491C29.403 38.2883 30.4546 38.0769 31.2184 37.0629C31.6084 36.5452 31.8107 36.0929 32.3138 34.6135C32.8595 33.0088 33.0305 32.8504 34.9148 32.2035C36.7692 31.5669 37.3807 31.1718 37.7822 30.3513C38.1517 29.5961 38.1732 28.9763 37.8836 27.4345C37.5859 25.8494 37.5714 25.2323 37.8208 24.7567C37.9217 24.5643 38.4112 23.9398 38.9085 23.3691C40.1027 21.9986 40.3258 21.5453 40.3258 20.4918C40.3258 19.7797 40.2946 19.6335 40.0467 19.186C39.8933 18.909 39.3517 18.1953 38.8433 17.6001C38.3349 17.0048 37.8556 16.3952 37.7781 16.2455C37.573 15.8489 37.6052 15.0436 37.8817 13.6523C38.2617 11.7403 38.0901 10.7345 37.255 9.98005C36.7789 9.54983 36.3817 9.35387 35.0669 8.9006C32.9571 8.17307 32.881 8.09703 32.1546 5.9904C31.7062 4.69024 31.5364 4.34507 31.0917 3.82933C30.3488 2.96812 29.3361 2.78784 27.4017 3.17237C26.7271 3.30642 25.9183 3.41622 25.6042 3.41641C24.929 3.41688 24.5979 3.23264 23.4867 2.23777C22.1318 1.02497 21.4886 0.683943 20.5622 0.687528C20.1977 0.688848 19.7706 0.759601 19.5091 0.861957ZM21.2028 2.37107C21.3952 2.4704 22.0198 2.95661 22.5905 3.4516C23.1612 3.94649 23.8617 4.47016 24.147 4.61525C24.9001 4.99807 25.7908 5.01759 27.5463 4.68978C29.8444 4.26054 30.0008 4.35591 30.7968 6.67141C31.6116 9.0422 32.0152 9.44146 34.4549 10.2909C35.754 10.7434 36.0042 10.8641 36.3006 11.1814C36.6329 11.537 36.6455 12.0015 36.3642 13.5077C36.0364 15.2633 36.056 16.1539 36.4387 16.907C36.5838 17.1923 37.1075 17.8928 37.6024 18.4635C38.6189 19.6356 38.8636 20.0431 38.8636 20.5638C38.8636 21.0078 38.5613 21.4997 37.6904 22.4728C36.0536 24.3014 35.8659 25.0219 36.371 27.5358C36.6405 28.8764 36.6355 29.5304 36.3539 29.8422C36.0994 30.1239 35.4819 30.417 34.2883 30.8227C32.9683 31.2714 32.6188 31.4507 32.0772 31.9573C31.5496 32.4508 31.3409 32.8517 30.7445 34.518C29.9485 36.7415 29.8197 36.8098 27.3545 36.3157C26.8097 36.2065 26.0244 36.1151 25.6092 36.1124C24.5624 36.106 23.9644 36.404 22.4986 37.6621C21.8774 38.1954 21.2314 38.6893 21.063 38.7596C20.3952 39.0387 19.9596 38.8665 18.8015 37.8657C16.7756 36.1152 16.1518 35.8765 14.4303 36.1933C12.0983 36.6225 11.9935 36.6349 11.5981 36.5285C11.1021 36.3949 10.7748 35.8969 10.3653 34.6527C9.91556 33.2866 9.50109 32.4488 9.05314 32.0009C8.60522 31.5529 7.76741 31.1385 6.40123 30.6888C5.15711 30.2792 4.65911 29.9519 4.52553 29.456C4.41911 29.0605 4.43148 28.9557 4.86071 26.6236C5.17711 24.9045 4.91703 24.2254 3.19151 22.2644C2.49625 21.4741 2.16653 20.9193 2.16653 20.5397C2.16653 20.0954 2.41417 19.6944 3.39188 18.5554C4.65005 17.0896 4.94797 16.4916 4.94155 15.4447C4.93891 15.0297 4.8475 14.2443 4.73835 13.6995C4.45129 12.2673 4.42364 11.9875 4.531 11.5987C4.67241 11.0865 5.08674 10.8277 6.67292 10.2609C8.23353 9.7034 8.65286 9.47557 9.16747 8.90597C9.61263 8.41325 9.78818 8.05968 10.2646 6.6966C10.7093 5.42409 10.9332 4.95221 11.2118 4.70015C11.5234 4.41846 12.1776 4.41356 13.5182 4.68298C16.0321 5.18815 16.7526 5.00042 18.5812 3.36368C19.91 2.17428 20.4357 1.97523 21.2028 2.37107ZM17.983 6.06482C11.9786 7.12177 7.2396 11.9117 6.1718 18.0028C5.95152 19.2589 5.95171 21.5366 6.17199 22.7934C6.7283 25.9668 8.20325 28.7382 10.509 30.9426C12.9317 33.2586 16.123 34.6732 19.4745 34.9168C27.2078 35.4787 33.9731 29.9505 35.0024 22.2284C35.0727 21.7015 35.0949 20.8073 35.0617 19.8314C35.0039 18.1247 34.7977 17.023 34.2404 15.4447C33.8562 14.3564 33.0433 12.7924 32.7366 12.551C32.3001 12.2077 31.5996 12.5252 31.5996 13.0664C31.5996 13.222 31.8724 13.8997 32.2109 14.5847C33.1765 16.5394 33.58 18.2524 33.58 20.3974C33.58 22.542 33.1753 24.2605 32.2139 26.1992C31.4872 27.6647 30.6857 28.7577 29.5353 29.8525C23.1466 35.9322 12.6449 34.0327 8.81531 26.1048C7.90052 24.211 7.51487 22.5185 7.51487 20.3974C7.51487 16.924 8.73776 13.8938 11.1552 11.377C13.1191 9.33244 15.6288 7.99694 18.3855 7.52969C19.5452 7.33309 21.5603 7.33442 22.7495 7.53252C23.6033 7.67478 23.689 7.67469 23.9078 7.53138C24.329 7.25536 24.3428 6.56821 23.9325 6.29935C23.2769 5.86974 19.8568 5.73493 17.983 6.06482ZM26.0589 7.37573C25.5028 7.89383 25.7038 8.35599 26.7222 8.90125C27.5964 9.36925 28.7808 10.2194 29.4806 10.8811C30.0759 11.4441 30.3339 11.5501 30.717 11.3891C31.1424 11.2101 31.2761 10.6512 30.9909 10.244C30.5883 9.66929 28.3676 8.02855 27.1925 7.43771C26.6046 7.14215 26.326 7.12687 26.0589 7.37573ZM25.6564 13.9002C25.1954 14.0799 24.7796 14.4586 21.9274 17.2957L18.7172 20.4887L17.3595 19.1286C15.7926 17.559 15.3641 17.2786 14.4287 17.2118C13.2672 17.1287 12.2609 17.6936 11.7156 18.735C11.3728 19.3891 11.3546 20.5042 11.6757 21.1577C11.8225 21.4562 12.7158 22.4126 14.5973 24.2858C17.2354 26.912 17.3225 26.9883 17.8669 27.1455C18.5499 27.3429 19.3496 27.2913 19.9241 27.0128C20.2008 26.8787 21.7149 25.426 24.7762 22.3577C29.188 17.9355 29.2274 17.8928 29.3867 17.3382C29.776 15.9838 29.2042 14.6413 27.9677 14.0066C27.3053 13.6665 26.3663 13.6233 25.6564 13.9002ZM27.1976 15.2974C27.5359 15.426 27.9119 15.8686 27.9767 16.2147C28.1124 16.9378 28.1416 16.9025 23.7369 21.3237C21.4461 23.6233 19.4571 25.5654 19.317 25.6396C18.9873 25.8143 18.5454 25.8113 18.1671 25.6317C17.7679 25.4423 13.1494 20.8027 13.021 20.4621C12.6047 19.3577 13.7636 18.2907 14.7888 18.8345C14.9289 18.9088 15.744 19.6757 16.6001 20.5389C18.2257 22.1779 18.5473 22.4288 18.8925 22.3271C19.0067 22.2935 20.6495 20.7255 22.5433 18.8428C24.4371 16.96 26.0715 15.3734 26.1753 15.3171C26.4099 15.1897 26.8899 15.1804 27.1976 15.2974Z" fill="#0A0A0A"/>
</g>
<defs>
<clipPath id="clip0_1108_858">
<rect width="41" height="41" fill="white"/>
</clipPath>
</defs>
</svg>
