<svg width="26" height="38" viewBox="0 0 26 38" fill="none" xmlns="http://www.w3.org/2000/svg">
<g id="Icon%201.svg" clip-path="url(#clip0_1108_807)">
<path id="Vector" fill-rule="evenodd" clip-rule="evenodd" d="M14.1185 0.321905C14.0457 0.362822 13.8954 0.584574 13.7846 0.814613C13.4937 1.41827 12.1716 2.6588 10.8826 3.53744C9.58703 4.42055 9.48145 4.56084 9.80929 4.96291C10.083 5.29854 10.3506 5.23269 11.2933 4.5978C12.4682 3.80649 13.051 3.33299 13.8606 2.51169L14.5682 1.79379L14.8903 2.2664C15.8515 3.67648 16.1505 4.9456 15.8048 6.1461C15.3983 7.55763 15.2751 8.1082 15.2303 8.71437C15.1512 9.78065 15.4383 10.7145 15.8921 10.8671C16.2511 10.9879 16.4498 10.8638 16.786 10.3086C17.6087 8.94967 18.9035 7.91728 20.6436 7.233C21.002 7.09205 21.3115 6.99247 21.3313 7.01176C21.3512 7.03097 21.3143 7.39279 21.2491 7.81575C21.0183 9.31584 21.1419 10.4233 21.6924 11.7861C22.1289 12.8666 22.2284 13.2853 22.2256 14.0291C22.2217 15.1048 21.7886 16.0113 20.7979 17.0173C20.5552 17.2638 20.4375 17.329 20.2347 17.329C19.9959 17.329 19.9812 17.3153 20.0194 17.1273C20.1968 16.2545 20.1168 15.1105 19.7979 13.9612C19.5864 13.1987 19.2233 12.3163 18.9745 11.9603C18.5844 11.4018 18.0428 11.5601 17.8932 12.2763C17.564 13.8528 16.9045 14.4183 14.9542 14.7962C14.8334 14.8196 14.8256 14.7674 14.8675 14.2238C14.978 12.7902 14.3177 10.39 13.1843 8.1063C12.9187 7.5712 12.5994 7.03493 12.4748 6.91467C12.1985 6.64812 11.8555 6.62355 11.6174 6.85322C11.4649 7.00032 11.4575 7.05862 11.5023 7.76506C11.5944 9.21567 11.342 9.81607 10.1243 11.0426C9.48461 11.6871 9.22461 12.0106 9.0107 12.428C8.68814 13.0577 8.47305 14.0734 8.53592 14.6707C8.56208 14.9189 8.54766 15.0557 8.49542 15.0557C8.35731 15.0557 7.1712 14.2631 6.73879 13.8819C6.22725 13.4309 6.03348 13.3537 5.72575 13.4786C5.4339 13.5969 5.3946 13.6985 5.3946 14.3338C5.3946 14.9898 5.65444 15.7531 6.15944 16.5807C6.36591 16.9192 6.53491 17.2095 6.53491 17.2258C6.53491 17.2423 6.36598 17.2556 6.15951 17.2556C5.95304 17.2556 5.55432 17.3071 5.2735 17.3699C4.6816 17.5023 4.75603 17.5545 4.3275 16.7057C3.84454 15.7489 3.6358 14.9443 3.58972 13.8625C3.54297 12.7651 3.63982 12.0694 3.96451 11.1705C4.19644 10.5284 4.80947 9.38872 5.12374 9.01533L5.30102 8.80474L5.62775 9.34532C6.02572 10.0039 6.67432 10.6463 7.2016 10.9041C7.6873 11.1414 7.85971 11.1445 8.0925 10.92C8.27088 10.748 8.27379 10.7246 8.22983 9.82671C8.16389 8.48006 8.3867 7.60356 9.05553 6.57816C9.38455 6.07371 9.42709 5.76155 9.19459 5.55857C8.93025 5.3278 8.59478 5.38544 8.30058 5.7122C7.70014 6.37907 7.0688 8.04322 7.06758 8.96236L7.06705 9.3587L6.90869 9.22046C6.71933 9.05516 6.20072 8.03425 6.07992 7.58902C6.01279 7.3416 5.94248 7.25118 5.7595 7.17698C5.42561 7.04153 5.28733 7.10108 4.85424 7.56687C3.75339 8.75062 2.85256 10.5078 2.55121 12.0589C2.21391 13.7953 2.59173 16.0577 3.46406 17.5254C3.56418 17.6938 3.64613 17.8482 3.64613 17.8684C3.64613 17.8885 3.43533 18.0286 3.17762 18.1796C1.82803 18.9704 0.726951 20.4229 0.292647 21.9854C0.0741646 22.7713 0.0544751 24.0899 0.248707 24.9186C0.440658 25.7377 1.09717 26.9948 1.64885 27.5999C1.89021 27.8647 4.31466 30.2155 7.03649 32.8239C10.3536 36.0026 12.076 37.6029 12.2605 37.6773C13.0018 37.976 13.3403 37.7939 14.955 36.2271C16.1014 35.1146 16.2655 34.9262 16.2655 34.7219C16.2655 34.4182 16.0332 34.195 15.7171 34.195C15.5026 34.195 15.3142 34.347 14.1727 35.4416C13.4578 36.1272 12.8237 36.6883 12.7636 36.6884C12.7036 36.6884 10.2914 34.4032 7.40298 31.6102C2.17126 26.551 2.1502 26.5296 1.83464 25.9086C1.26456 24.7869 1.09444 23.6965 1.32113 22.6174C1.49818 21.7746 1.69713 21.2978 2.1353 20.6658C2.82777 19.6671 3.91905 18.8886 5.12853 18.5306C5.7779 18.3384 7.5234 18.339 8.16932 18.5317C9.21728 18.8442 9.77596 19.2073 11.0581 20.4093C11.9088 21.2068 12.0967 21.3479 12.4082 21.4235C13.0979 21.5908 13.3575 21.4535 14.6636 20.2307C15.3772 19.5626 15.8635 19.1726 16.2283 18.9757C17.8942 18.0771 20.0038 18.0978 21.6504 19.0287C22.2719 19.3801 23.2536 20.3462 23.5993 20.9466C24.573 22.638 24.5394 24.5677 23.5073 26.2386C23.3124 26.5542 22.3034 27.5819 19.9405 29.872C16.373 33.3295 16.43 33.2604 16.8322 33.6483C17.2358 34.0376 17.1703 34.0874 20.6596 30.7301C22.4306 29.0261 24.03 27.431 24.2136 27.1854C24.6483 26.6042 25.0406 25.7979 25.2453 25.0653C25.4691 24.264 25.4852 22.8785 25.2798 22.0955C24.82 20.3434 23.7002 18.8861 22.1951 18.0816C21.9233 17.9363 21.6876 17.8074 21.6712 17.7951C21.6549 17.7828 21.7747 17.6203 21.9373 17.434C22.3744 16.9336 22.633 16.5463 22.9135 15.9724C23.2619 15.2593 23.3684 14.771 23.361 13.9191C23.3537 13.0862 23.2361 12.5839 22.8025 11.5341C22.2283 10.1439 22.1415 8.88378 22.5094 7.28272C22.7589 6.1975 22.7686 6.00266 22.5822 5.82293C22.3855 5.63315 22.2583 5.63205 21.5194 5.81405C19.7342 6.25367 18.2689 7.03999 17.0451 8.2149C16.6582 8.58639 16.3418 8.85034 16.3421 8.80155C16.3439 8.52118 16.5304 7.687 16.7667 6.90301C16.9155 6.40891 17.0567 5.78179 17.0804 5.50937C17.2021 4.10788 16.5234 2.39862 15.26 0.925269C14.667 0.233762 14.4652 0.127066 14.1185 0.321905ZM12.6363 9.57431C12.9403 10.3472 13.2629 11.305 13.4576 12.0125C13.6571 12.7377 13.7013 13.0407 13.7092 13.7358C13.7176 14.4806 13.6988 14.6152 13.5478 14.8878C13.3129 15.3119 13.3246 15.5916 13.5858 15.7924C13.7793 15.9411 13.8515 15.95 14.5551 15.9112C15.4798 15.8603 16.3453 15.6532 16.9736 15.3328C17.4349 15.0975 18.1257 14.501 18.4411 14.0658L18.6005 13.8458L18.7743 14.5424C18.9555 15.2691 19.0175 16.3904 18.9047 16.9023C18.8462 17.1682 18.8385 17.173 18.4106 17.2159C17.1649 17.3405 15.7478 17.8604 14.9079 18.501C14.6969 18.6619 14.1311 19.1569 13.6507 19.6012C13.1702 20.0454 12.7537 20.4089 12.7249 20.4089C12.6962 20.4089 12.2411 20.002 11.7134 19.5046C10.4418 18.3061 9.8126 17.9048 8.59099 17.5135C8.34415 17.4344 8.10141 17.2936 7.98441 17.1618C7.45133 16.5614 6.61465 15.2535 6.85282 15.3929C6.90794 15.4251 7.15325 15.5759 7.39804 15.7279C7.99071 16.0959 8.58501 16.3024 9.05143 16.3024C9.79377 16.3024 9.94646 16.0676 9.76084 15.2126C9.55607 14.2702 9.74421 13.2489 10.254 12.5341C10.3811 12.3558 10.6737 12.0479 10.9041 11.8498C11.6443 11.2135 12.4643 10.0368 12.4644 9.61094C12.4645 9.46335 12.5828 9.43812 12.6363 9.57431Z" fill="#0A0A0A"/>
</g>
<defs>
<clipPath id="clip0_1108_807">
<rect width="26" height="38" fill="white"/>
</clipPath>
</defs>
</svg>
