<svg width="35" height="35" viewBox="0 0 35 35" fill="none" xmlns="http://www.w3.org/2000/svg">
<g id="Icon%204.svg" clip-path="url(#clip0_1108_852)">
<path id="Vector" fill-rule="evenodd" clip-rule="evenodd" d="M16.3165 0.408046C12.8093 2.00106 13.9181 7.21789 17.7638 7.21789C20.1095 7.21789 21.83 5.00533 21.2267 2.76456C20.8208 1.25753 19.2844 0.0556641 17.7638 0.0556641C17.3943 0.0556641 16.7429 0.214197 16.3165 0.408046ZM18.7297 1.87381C19.9393 2.49931 20.1721 4.11209 19.1938 5.09035C17.5444 6.73979 14.8069 4.69747 15.9785 2.69142C16.5995 1.62814 17.6505 1.31568 18.7297 1.87381ZM14.5231 7.43669C13.4556 7.76968 12.5272 8.66619 12.0134 9.86096L11.6112 10.7953H10.1772H8.7431V13.5782V16.3612H9.70279H10.6624V18.8563V21.3514H17.7638H24.8651V18.8563V16.3612H25.8248H26.7845V13.5782V10.7953H25.354H23.9235L23.5209 9.88362C22.6215 7.84761 20.9682 6.95187 18.871 7.36452C18.0379 7.52842 17.4822 7.52881 16.6723 7.36624C15.405 7.11175 15.584 7.1058 14.5231 7.43669ZM18.3396 8.98482C20.1069 8.80378 20.6032 8.84123 21.1452 9.19648C21.5557 9.46537 22.1782 10.3651 22.1782 10.6897C22.1782 10.7479 20.1917 10.7953 17.7638 10.7953C15.3359 10.7953 13.3494 10.7479 13.3494 10.6897C13.3494 10.3719 13.9675 9.46826 14.3613 9.21013C14.9676 8.81297 15.6049 8.72913 16.4203 8.93932C16.7898 9.03469 17.6534 9.05499 18.3396 8.98482ZM25.249 13.5782V14.8258H24.2894H23.3297V17.3209V19.8159H17.7638H12.1978V17.3209V14.8258H11.2381H10.2785V13.5782V12.3307H17.7638H25.249V13.5782ZM4.32873 23.7827C2.46414 24.5497 1.70046 26.8828 2.77679 28.5236L3.13416 29.0683L2.37413 29.7551C1.25883 30.7626 0.826024 31.7409 0.721615 33.4909L0.632751 34.9784H5.48031H10.3279L10.239 33.4909C10.1346 31.7409 9.70182 30.7626 8.58649 29.7551L7.82645 29.0683L8.18382 28.5236C9.06885 27.1745 8.69493 25.1527 7.38827 24.2222C6.7503 23.7679 4.98225 23.514 4.32873 23.7827ZM16.6122 23.7827C14.7476 24.5497 13.9839 26.8828 15.0602 28.5236L15.4177 29.0683L14.6576 29.7551C13.5423 30.7626 13.1095 31.7409 13.0051 33.4909L12.9162 34.9784H17.7638H22.6113L22.5225 33.4909C22.418 31.7409 21.9853 30.7626 20.87 29.7551L20.1099 29.0683L20.4673 28.5236C21.3523 27.1745 20.9784 25.1527 19.6718 24.2222C19.0338 23.7679 17.2658 23.514 16.6122 23.7827ZM28.8957 23.7827C27.0311 24.5497 26.2674 26.8828 27.3438 28.5236L27.7011 29.0683L26.9411 29.7551C25.8258 30.7626 25.3929 31.7409 25.2885 33.4909L25.1996 34.9784H30.0472H34.8948L34.8059 33.4909C34.7015 31.7409 34.2688 30.7626 33.1534 29.7551L32.3934 29.0683L32.7507 28.5236C33.6357 27.1745 33.2619 25.1527 31.9552 24.2222C31.3172 23.7679 29.5492 23.514 28.8957 23.7827ZM6.45665 25.436C6.86969 25.7531 7.20767 26.4206 7.20767 26.9194C7.20767 27.5553 6.19658 28.4527 5.48031 28.4527C4.76402 28.4527 3.75294 27.5553 3.75294 26.9194C3.75294 26.4206 4.09093 25.7531 4.50397 25.436C4.89665 25.1345 6.06396 25.1345 6.45665 25.436ZM18.7401 25.436C19.1531 25.7531 19.4911 26.4206 19.4911 26.9194C19.4911 27.5553 18.4801 28.4527 17.7638 28.4527C17.0475 28.4527 16.0364 27.5553 16.0364 26.9194C16.0364 26.4206 16.3744 25.7531 16.7874 25.436C17.1801 25.1345 18.3474 25.1345 18.7401 25.436ZM31.0236 25.436C31.4367 25.7531 31.7746 26.4206 31.7746 26.9194C31.7746 27.5553 30.7635 28.4527 30.0472 28.4527C29.331 28.4527 28.3199 27.5553 28.3199 26.9194C28.3199 26.4206 28.6578 25.7531 29.0709 25.436C29.4636 25.1345 30.6309 25.1345 31.0236 25.436ZM7.35507 30.6862C8.00686 31.1833 8.73063 32.4494 8.73888 33.107C8.74272 33.4139 8.46135 33.4429 5.48031 33.4429C2.99751 33.4429 2.2177 33.3855 2.21866 33.203C2.22385 32.033 3.32801 30.5313 4.44273 30.1782C5.32619 29.8984 6.61748 30.1235 7.35507 30.6862ZM19.6385 30.6862C20.2903 31.1833 21.0141 32.4494 21.0223 33.107C21.0262 33.4139 20.7449 33.4429 17.7638 33.4429C15.281 33.4429 14.5012 33.3855 14.5022 33.203C14.5073 32.033 15.6115 30.5313 16.7262 30.1782C17.6096 29.8984 18.901 30.1235 19.6385 30.6862ZM31.1501 30.2834C32.1017 30.6811 32.5297 31.0902 32.949 32.0034C33.6304 33.487 33.7193 33.4429 30.0472 33.4429C27.5644 33.4429 26.7846 33.3855 26.7856 33.203C26.7887 32.5084 27.2376 31.5316 27.8082 30.9787C28.8089 30.0087 29.9329 29.7749 31.1501 30.2834Z" fill="#0A0A0A"/>
</g>
<defs>
<clipPath id="clip0_1108_852">
<rect width="35" height="35" fill="white"/>
</clipPath>
</defs>
</svg>
