<svg width="40" height="40" viewBox="0 0 40 40" fill="none" xmlns="http://www.w3.org/2000/svg">
<g id="Icon%206.svg" clip-path="url(#clip0_1108_864)">
<path id="Vector" fill-rule="evenodd" clip-rule="evenodd" d="M18.8851 0.0513825C10.3363 0.678902 3.19814 6.76105 1.22386 15.0998C0.86866 16.6 0.748716 17.7204 0.747085 19.5548C0.74494 21.8832 0.980277 23.4447 1.64701 25.5264C4.39689 34.1126 12.836 39.7822 21.7592 39.0387C26.4812 38.6453 30.761 36.6735 34.0696 33.3672C41.6791 25.7629 41.707 13.4412 34.1321 5.80527C30.1246 1.76561 24.4916 -0.360185 18.8851 0.0513825ZM22.8765 1.53096C30.2031 2.60891 36.1041 7.93398 37.9399 15.1243C38.2683 16.4106 38.4459 17.9546 38.4464 19.5272C38.447 21.6806 38.1948 23.2914 37.5487 25.2617C35.3445 31.9836 29.4329 36.7947 22.3192 37.6557C21.1237 37.8005 18.8977 37.7637 17.6391 37.5786C10.3125 36.5006 4.41156 31.1755 2.57577 23.9852C2.11169 22.1676 1.92817 19.2729 2.15871 17.4076C2.72668 12.8127 5.02123 8.55257 8.49643 5.64071C11.1928 3.38134 14.5618 1.90314 18.0271 1.45906C19.1297 1.31775 21.6847 1.35558 22.8765 1.53096ZM15.9251 11.3109C15.1074 11.5157 14.4236 12.2816 14.4236 12.9924C14.4236 13.271 14.7792 13.6348 15.0517 13.6348C15.3198 13.6348 15.7106 13.3258 15.7106 13.1137C15.7106 12.8711 16.0177 12.6052 16.2978 12.6052C16.5615 12.6052 16.735 12.7595 16.9217 13.1598C17.2965 13.963 18.3286 13.6248 18.165 12.7525C18.087 12.3373 17.6309 11.7499 17.208 11.52C16.8122 11.3046 16.2896 11.2195 15.9251 11.3109ZM23.8613 11.3173C23.1718 11.446 22.5911 11.9751 22.4033 12.6459C22.1189 13.662 23.2653 14.0128 23.6585 13.03C23.8916 12.4474 24.5164 12.4451 24.7489 13.026C24.991 13.6313 25.4965 13.8091 25.8814 13.4241C26.1247 13.1809 26.1469 12.9026 25.9588 12.4523C25.6203 11.642 24.7231 11.1566 23.8613 11.3173ZM18.5809 17.6205C18.3377 17.8636 18.3155 18.1419 18.5033 18.5923C19.0731 19.9582 20.8641 20.167 21.7733 18.9736C22.2665 18.326 22.2356 17.6498 21.7043 17.4631C21.3387 17.3344 21.0418 17.463 20.8808 17.8196C20.6683 18.2902 20.5166 18.4393 20.2508 18.4393C20.0141 18.4393 19.6573 18.1061 19.6573 17.885C19.6573 17.7037 19.2669 17.4099 19.0257 17.4099C18.8914 17.4099 18.7017 17.4996 18.5809 17.6205ZM7.40192 20.9791C7.08619 21.2003 7.03412 21.4636 7.13518 22.3294C7.5797 26.1403 9.99886 29.7805 13.3614 31.6985C16.5679 33.5275 21.2253 33.9025 25.0325 32.6382C29.422 31.1805 32.6774 27.2236 33.3476 22.5313C33.5012 21.4558 33.4586 21.2076 33.0769 20.9576C32.8537 20.8113 32.7911 20.8182 30.821 21.2087C28.225 21.7232 27.5698 21.8313 25.7917 22.0384C23.3451 22.3233 21.4913 22.4132 19.2283 22.3566C16.0128 22.2761 13.4168 21.9666 9.73375 21.2247C8.68785 21.014 7.77952 20.8417 7.71509 20.8417C7.65074 20.8417 7.50977 20.9034 7.40192 20.9791ZM9.92296 22.6005C16.9027 24.0407 23.3697 24.056 30.3476 22.6487C31.2394 22.4689 31.9855 22.3365 32.0053 22.3544C32.1074 22.4463 31.4866 24.8741 31.361 24.8741C31.3374 24.8741 30.6151 25.0068 29.7561 25.1688C22.9097 26.4606 17.2209 26.4323 10.2855 25.0719L9.10722 24.8408L8.89059 24.1904C8.71188 23.6536 8.39846 22.3003 8.45294 22.3003C8.46135 22.3003 9.12284 22.4353 9.92296 22.6005Z" fill="#0A0A0A"/>
</g>
<defs>
<clipPath id="clip0_1108_864">
<rect width="40" height="40" fill="white"/>
</clipPath>
</defs>
</svg>
