<svg width="36" height="36" viewBox="0 0 36 36" fill="none" xmlns="http://www.w3.org/2000/svg">
<g id="Icon%202.svg" clip-path="url(#clip0_1108_813)">
<path id="Vector" fill-rule="evenodd" clip-rule="evenodd" d="M15.4739 0.406232C8.33877 1.51496 2.60178 6.66041 0.756305 13.6065C0.122898 15.9897 0.122898 20.1 0.756305 22.4831C2.08758 27.4939 5.55409 31.7405 10.1606 34.0041C12.8405 35.3209 14.7625 35.7479 18.01 35.7479C21.2576 35.7479 23.1795 35.3209 25.8594 34.0041C30.4659 31.7405 33.9325 27.4939 35.2637 22.4831C35.8972 20.1 35.8972 15.9897 35.2637 13.6065C33.2378 5.98156 26.6408 0.662385 18.7627 0.301827C17.6513 0.250892 16.1713 0.297811 15.4739 0.406232ZM18.8554 1.63099C19.6055 2.08834 20.4758 3.60982 21.1919 5.71506C22.0328 8.18736 22.2849 8.00587 18.01 8.00587C13.7351 8.00587 13.9873 8.18736 14.8282 5.71506C15.5443 3.60982 16.4146 2.08834 17.1646 1.63099C17.9511 1.15144 18.069 1.15144 18.8554 1.63099ZM14.9948 2.56366C14.4947 3.40567 13.8108 5.16873 13.3549 6.7906L13.0134 8.00587H10.9149C9.76077 8.00587 8.81648 7.95367 8.81648 7.89004C8.81648 7.53856 10.484 5.25411 11.4334 4.30452C12.5083 3.22983 14.556 1.8827 15.1213 1.87869C15.3293 1.87721 15.2963 2.05579 14.9948 2.56366ZM22.3319 2.54105C23.749 3.35368 25.4414 5.01951 26.4468 6.59088C26.863 7.24183 27.2036 7.82642 27.2036 7.89004C27.2036 7.95367 26.2593 8.00587 25.1051 8.00587H23.0067L22.6651 6.7906C22.2093 5.16873 21.5253 3.40567 21.0253 2.56366C20.4969 1.67389 20.8102 1.66861 22.3319 2.54105ZM10.2496 3.98011C9.62358 4.67206 8.74714 5.86088 8.30199 6.62194L7.49256 8.00587H6.14671C5.40657 8.00587 4.80085 7.92338 4.80085 7.82261C4.80085 7.42802 8.18366 4.43556 9.5699 3.60391C10.376 3.12014 11.1148 2.72386 11.2118 2.72323C11.3089 2.7226 10.8758 3.28816 10.2496 3.98011ZM26.431 3.59609C27.8159 4.41886 31.2192 7.42295 31.2192 7.82261C31.2192 7.92338 30.6135 8.00587 29.8733 8.00587H28.5275L27.718 6.62194C27.273 5.86088 26.3965 4.67206 25.7704 3.98011C25.1443 3.28816 24.7057 2.72217 24.7959 2.72217C24.8862 2.72217 25.6219 3.11549 26.431 3.59609ZM6.91432 9.24075C6.91432 9.33881 6.73341 9.94518 6.51213 10.5883C5.96939 12.1654 5.61728 13.9185 5.46004 15.8257L5.32922 17.4108L3.27155 17.4712L1.21387 17.5317L1.33413 16.5202C1.56048 14.6166 2.23594 12.2655 3.01687 10.6639L3.7978 9.06255H5.35606C6.21307 9.06255 6.91432 9.14292 6.91432 9.24075ZM12.7473 9.64379C12.4958 10.8795 12.1978 13.8695 12.195 15.1861C12.19 17.6467 12.3563 17.5164 9.21443 17.5164H6.49162L6.49438 16.4069C6.49776 15.027 7.14152 11.8914 7.75252 10.2778L8.21285 9.06255H10.5392H12.8656L12.7473 9.64379ZM22.133 9.11537C22.1341 9.14457 22.2748 10.2144 22.446 11.4931C22.617 12.7717 22.759 14.6501 22.7611 15.6671L22.7653 17.5164H18.01H13.2547L13.259 15.6671C13.2611 14.6501 13.4031 12.7717 13.574 11.4931C13.7453 10.2144 13.886 9.14457 13.8871 9.11537C13.8879 9.08626 15.7433 9.06255 18.01 9.06255C20.2768 9.06255 22.1322 9.08626 22.133 9.11537ZM28.2675 10.2778C28.8786 11.8914 29.5223 15.027 29.5257 16.4069L29.5285 17.5164H26.8057C23.6637 17.5164 23.8301 17.6467 23.825 15.1861C23.8223 13.8695 23.5243 10.8795 23.2727 9.64379L23.1544 9.06255H25.481H27.8073L28.2675 10.2778ZM33.0032 10.6639C33.7841 12.2655 34.4596 14.6166 34.6859 16.5202L34.8062 17.5317L32.7485 17.4712L30.6909 17.4108L30.56 15.8257C30.4028 13.9185 30.0507 12.1654 29.5079 10.5883C29.2866 9.94518 29.1058 9.33881 29.1058 9.24075C29.1058 9.14292 29.807 9.06255 30.664 9.06255H32.2223L33.0032 10.6639ZM5.46004 20.2639C5.61728 22.1712 5.96939 23.9243 6.51213 25.5013C6.73341 26.1445 6.91432 26.7508 6.91432 26.8489C6.91432 26.9467 6.21307 27.0271 5.35606 27.0271H3.7978L3.01687 25.4257C2.23594 23.8241 1.56048 21.4731 1.33413 19.5695L1.21387 18.5579L3.27155 18.6184L5.32922 18.6789L5.46004 20.2639ZM12.0649 19.0487C12.1348 19.3102 12.1936 20.145 12.195 20.9035C12.1978 22.2202 12.4958 25.2101 12.7473 26.4459L12.8656 27.0271H10.5392H8.21285L7.75252 25.8118C7.14152 24.1982 6.49776 21.0627 6.49438 19.6828L6.49162 18.5732H9.21443C11.8597 18.5732 11.941 18.5867 12.0649 19.0487ZM22.7611 20.4225C22.759 21.4397 22.617 23.3179 22.446 24.5965C22.2748 25.8753 22.1341 26.9452 22.133 26.9742C22.1322 27.0031 20.2768 27.0271 18.01 27.0271C15.7433 27.0271 13.8879 27.0031 13.8871 26.9742C13.886 26.9452 13.7453 25.8753 13.574 24.5965C13.4031 23.3179 13.2611 21.4397 13.259 20.4225L13.2547 18.5732H18.01H22.7653L22.7611 20.4225ZM29.5257 19.6828C29.5223 21.0627 28.8786 24.1982 28.2675 25.8118L27.8073 27.0271H25.481H23.1544L23.2727 26.4459C23.5243 25.2101 23.8223 22.2202 23.825 20.9035C23.8301 18.443 23.6637 18.5732 26.8057 18.5732H29.5285L29.5257 19.6828ZM34.6849 19.5771C34.4598 21.4727 33.783 23.8262 33.0032 25.4257L32.2223 27.0271H30.664C29.807 27.0271 29.1058 26.9467 29.1058 26.8489C29.1058 26.7508 29.2941 26.1231 29.5242 25.454C30.0625 23.8896 30.5852 21.1303 30.5852 19.8531C30.5852 19.3042 30.6486 18.7915 30.7262 18.7141C30.8035 18.6366 31.7529 18.5732 32.8356 18.5732H34.8041L34.6849 19.5771ZM8.30199 29.4677C8.74714 30.2287 9.62358 31.4176 10.2496 32.1095C10.8758 32.8015 11.3143 33.3675 11.2241 33.3675C11.1339 33.3675 10.3981 32.9741 9.58915 32.4935C8.20416 31.6708 4.80085 28.6667 4.80085 28.2671C4.80085 28.1662 5.40657 28.0838 6.14671 28.0838H7.49256L8.30199 29.4677ZM13.3549 29.299C13.8108 30.9209 14.4947 32.6839 14.9948 33.526C15.2963 34.0339 15.3293 34.2125 15.1213 34.211C14.556 34.2069 12.5083 32.8598 11.4334 31.7851C10.484 30.8355 8.81648 28.5511 8.81648 28.1996C8.81648 28.136 9.76077 28.0838 10.9149 28.0838H13.0134L13.3549 29.299ZM21.7086 28.4913C21.7086 29.1282 20.5952 32.1152 19.9428 33.2284C19.5909 33.8291 19.0752 34.367 18.6629 34.5635C18.0347 34.863 17.9126 34.8619 17.3124 34.5516C16.5073 34.1353 15.6807 32.7683 14.8996 30.5606C13.9537 27.887 13.7066 28.0838 18.01 28.0838C21.5213 28.0838 21.7086 28.1045 21.7086 28.4913ZM27.2036 28.1996C27.2036 28.5511 25.5361 30.8355 24.5867 31.7851C23.5118 32.8598 21.4641 34.2069 20.8987 34.211C20.6908 34.2125 20.7237 34.0339 21.0253 33.526C21.5253 32.6839 22.2093 30.9209 22.6651 29.299L23.0067 28.0838H25.1051C26.2593 28.0838 27.2036 28.136 27.2036 28.1996ZM31.2192 28.2671C31.2192 28.6667 27.8159 31.6708 26.431 32.4935C25.6219 32.9741 24.8862 33.3675 24.7959 33.3675C24.7057 33.3675 25.1443 32.8015 25.7704 32.1095C26.3965 31.4176 27.273 30.2287 27.718 29.4677L28.5275 28.0838H29.8733C30.6135 28.0838 31.2192 28.1662 31.2192 28.2671Z" fill="#0A0A0A"/>
</g>
<defs>
<clipPath id="clip0_1108_813">
<rect width="36" height="36" fill="white"/>
</clipPath>
</defs>
</svg>
